<?xml version="1.0" standalone="no"?>
<!DOCTYPE svg PUBLIC "-//W3C//DTD SVG 20010904//EN"
 "http://www.w3.org/TR/2001/REC-SVG-20010904/DTD/svg10.dtd">
<svg version="1.0" xmlns="http://www.w3.org/2000/svg"
 width="74.000000pt" height="569.000000pt" viewBox="0 0 74.000000 569.000000"
 preserveAspectRatio="xMidYMid meet">

<g transform="translate(0.000000,569.000000) scale(0.100000,-0.100000)"
fill="#000000" stroke="none">
<path d="M0 2845 l0 -2845 370 0 370 0 0 2845 0 2845 -370 0 -370 0 0 -2845z
m208 2707 c19 -3 22 -9 22 -53 l0 -49 -50 0 -50 0 0 50 c0 43 3 50 20 50 15 0
20 7 21 28 l1 27 7 -25 c4 -15 15 -26 29 -28z m12 -257 c0 -19 -4 -35 -10 -35
-23 0 -7 -26 45 -75 44 -40 55 -57 54 -80 -1 -30 -1 -30 -9 5 -5 19 -21 45
-37 58 -15 13 -44 39 -65 58 -20 19 -41 34 -47 34 -6 0 -11 16 -11 35 0 34 1
35 40 35 39 0 40 -1 40 -35z m258 -206 c2 -30 -1 -37 -17 -42 -19 -5 -21 -13
-21 -107 l0 -103 -59 -58 c-90 -90 -90 -117 3 -210 l56 -56 0 -126 c0 -69 5
-138 10 -153 6 -15 35 -51 65 -79 l53 -52 4 -148 3 -147 51 -47 c28 -26 56
-57 63 -68 6 -12 11 -64 11 -116 0 -72 4 -98 15 -107 19 -16 19 -44 0 -60 -11
-9 -15 -35 -15 -106 l0 -93 -33 -25 c-19 -14 -49 -28 -68 -31 -33 -6 -33 -5 9
13 77 33 82 41 82 141 l0 90 -56 -26 c-30 -14 -58 -22 -61 -19 -3 3 7 10 23
16 64 23 73 31 68 59 -4 18 0 32 10 40 12 11 16 33 16 103 0 102 -11 131 -64
172 -59 44 -66 68 -66 217 l0 132 -51 51 c-81 80 -79 75 -79 221 0 146 0 145
-78 219 -42 40 -47 49 -47 89 0 42 5 50 63 110 l62 65 0 94 0 93 -58 -59 c-34
-35 -52 -61 -44 -64 29 -9 9 -48 -64 -119 -57 -55 -74 -77 -65 -86 16 -16 14
-52 -5 -68 -14 -11 -19 -10 -35 10 -23 28 -16 44 43 97 82 76 90 85 85 97 -3
7 -8 20 -12 29 -5 12 14 37 71 95 42 42 72 79 65 81 -6 2 -11 22 -11 43 l0 40
38 -3 c35 -3 37 -5 40 -39z m-284 -795 c19 -7 20 -42 2 -66 -12 -17 -14 -17
-28 0 -26 30 -29 40 -12 56 18 18 17 18 38 10z m0 -410 c19 -7 22 -60 4 -67
-9 -3 -1 -18 22 -43 l35 -39 -34 30 c-64 56 -71 65 -71 89 0 13 6 27 13 29 6
3 13 6 14 6 1 1 8 -2 17 -5z m11 -254 c0 -41 4 -49 53 -96 36 -35 52 -58 51
-75 -1 -24 -1 -24 -9 3 -4 14 -43 60 -85 101 -71 68 -76 76 -65 96 7 15 19 21
33 19 19 -3 22 -9 22 -48z m145 -65 c24 -29 24 -29 2 -10 -13 11 -28 29 -34
40 -11 21 -8 18 32 -30z m-163 -107 c-3 -8 -6 -5 -6 6 -1 11 2 17 5 13 3 -3 4
-12 1 -19z m266 -128 c7 0 33 7 60 15 26 8 47 11 47 6 0 -4 -26 -14 -57 -22
l-58 -15 -3 -98 c-2 -83 -1 -98 12 -93 36 14 98 28 103 23 3 -3 -22 -13 -56
-22 -51 -15 -61 -21 -61 -40 0 -12 7 -24 15 -28 24 -9 19 -53 -7 -62 -33 -10
-53 22 -33 52 17 27 20 54 5 54 -15 0 -71 -29 -92 -48 -12 -10 -18 -11 -18 -3
0 14 57 50 93 58 l27 6 0 98 0 98 -32 -11 c-18 -6 -44 -18 -58 -27 -23 -15
-24 -14 -12 1 8 9 33 25 58 34 l44 17 2 76 2 76 3 -72 c3 -49 8 -73 16 -73z
m-203 -434 c0 -2 -7 -7 -16 -10 -8 -3 -12 -2 -9 4 6 10 25 14 25 6z m204 -252
c20 -8 21 -53 1 -60 -12 -5 -15 -27 -15 -109 0 -57 -3 -106 -7 -108 -5 -3 -7
37 -5 89 3 70 -1 102 -12 125 -23 46 -3 79 38 63z m-74 -128 c0 -2 -8 -10 -17
-17 -16 -13 -17 -12 -4 4 13 16 21 21 21 13z m-50 -51 c-10 -12 -10 -19 -2
-27 14 -14 16 -58 3 -58 -5 0 -31 -22 -58 -48 -26 -26 -33 -31 -14 -10 32 34
33 40 22 64 -11 25 -9 30 20 61 34 34 52 45 29 18z m80 -128 c0 -2 -12 -14
-27 -28 l-28 -24 24 28 c23 25 31 32 31 24z m-212 -87 c-7 -10 -14 -17 -17
-15 -4 4 18 35 25 35 2 0 -1 -9 -8 -20z m131 -310 c11 -24 11 -24 -3 -6 -9 11
-16 24 -16 30 0 12 5 7 19 -24z m-19 -213 c0 -84 3 -106 15 -111 19 -7 20 -52
0 -63 -10 -6 -15 -33 -18 -98 l-3 -90 -2 91 c-1 67 -6 95 -17 104 -8 7 -15 18
-15 25 0 7 7 18 15 25 12 10 15 36 15 118 l0 105 -60 55 c-33 30 -60 60 -60
66 0 6 29 -19 65 -56 l65 -66 0 -105z m128 -138 l-3 -234 -5 242 c-3 133 -2
239 3 234 4 -4 6 -113 5 -242z m-49 -325 l51 -51 0 -106 c0 -84 3 -106 15
-111 8 -3 15 -17 15 -30 0 -28 -5 -31 -150 -102 -52 -25 -105 -55 -117 -67
-13 -11 -23 -16 -23 -10 0 15 44 43 129 80 94 42 103 50 96 83 -4 18 -1 31 10
40 12 10 15 35 15 118 l0 105 -60 57 c-33 32 -60 64 -60 71 0 8 5 6 14 -6 7
-11 37 -43 65 -71z m-49 -95 c0 -22 -24 -41 -43 -33 -23 8 -28 31 -15 60 12
25 9 30 -32 68 -25 23 -52 50 -60 61 -8 11 23 -16 68 -60 45 -44 82 -87 82
-96z m190 86 c13 -14 21 -25 18 -25 -2 0 -15 11 -28 25 -13 14 -21 25 -18 25
2 0 15 -11 28 -25z m37 -247 c-2 -35 -3 -7 -3 62 0 69 1 97 3 63 2 -35 2 -91
0 -125z m-47 -132 c0 -2 -8 -10 -17 -17 -16 -13 -17 -12 -4 4 13 16 21 21 21
13z m-180 -115 c0 -24 -23 -43 -43 -35 -24 9 -29 35 -11 55 20 22 54 9 54 -20z
m97 -178 c-2 -37 -3 -9 -3 62 0 72 1 102 3 68 2 -34 2 -93 0 -130z m-113 1
c24 -9 19 -49 -7 -67 -21 -14 -23 -13 -34 10 -9 18 -9 31 -2 44 10 20 18 23
43 13z m-84 -144 c-29 -27 -55 -48 -57 -46 -4 4 98 96 106 96 3 0 -19 -22 -49
-50z m46 -158 c-17 -16 -18 -16 -5 5 7 12 15 20 18 17 3 -2 -3 -12 -13 -22z
m-36 -36 c0 -2 -8 -10 -17 -17 -16 -13 -17 -12 -4 4 13 16 21 21 21 13z m-49
-50 c-9 -11 -9 -19 0 -34 17 -27 4 -54 -23 -50 -33 4 -34 34 -1 68 29 31 45
41 24 16z"/>
</g>
</svg>
